<?xml version="1.0" standalone="yes"?>
<svg xmlns="http://www.w3.org/2000/svg" width="766" height="608">
    <path style="fill:#ff5500; stroke:none;" d="M0 0L0 44L7 44L7 43L5 42L9 39L14 40L13 34L14 34L15 38L16 38L16 35L28 34L27 36L40.9105 36.2593L54 30C53.7835 23.939 61.901 20.8111 67 21L70 19L68 15L74 18L74 15L77 16L76 11L81 10L86 0L0 0z"/>
    <path style="fill:#1f1b14; stroke:none;" d="M81 10L76 11L77 16L74 15L74 18L73 18L68 15L70 19L67 21C61.0852 21.1018 54.584 23.3259 54 30L40.9105 35.9337L27 36L28 34L27 34C23.3367 34.5884 16.7665 34.1071 16 38L15 38L14 34L13 34L14 40L9 39L7 43L7 44L0 44L0 68L4 69L5 66L7 66C8.50923 68.4749 10.5791 70.3181 13 68L14 68L19 71L18 69L19 69L21 72L31 71L32 68L54 75.5555L62 78L63 78L64 76L65 79L76 76L81 79L82 76L83 76L82 79L101 79L101 83L107 82L108 88L107 88C105.777 84.3133 103.692 84.1204 100 84L100 85L103 88L100 88L102 89L102 90L100 91L101 92L108 89C103.486 93.614 100.1 93.4768 94 93L95 97L94 97L88 95L88 92L84 97L83 97L83 94L78 98L82 97C80.612 99.3133 70.7703 104.919 72 100L64 99L64 100L67 101L66 105L43 102L43 103L45 104L44 106L41 105L35 104L30 107C27.9782 99.8121 17.7326 108.027 14 101L11 102L0 100L0 608L766 608L766 0L242 0L120 0C108.357 0 83.909 -5.39551 81 10M78.3333 7.66669L78.6667 8.33331L78.3333 7.66669M74.6667 13.3333L75.3333 13.6667L74.6667 13.3333M66 15L67 16L66 15z"/>
    <path style="fill:#ff5500; stroke:none;" d="M220 73C232.89 64.1877 244.663 54.891 259 48.3087C314.479 22.8378 383.261 18.6903 442 34.1157C475.427 42.8939 511.57 57.5492 529.573 89C538.241 104.145 540.906 121.285 534.91 138C531.979 146.171 525.684 154.917 524.294 163.424C523.015 171.249 527.015 180.497 529 188C534.364 187.837 537.991 184.846 543 183.309C555.032 179.616 567.118 175.894 579.039 171.875C583.836 170.258 588.808 166.902 594 167.028C600.469 167.185 612.396 170.699 615.272 177.105C617.641 182.38 615.509 187.892 618.765 193C634.525 217.72 650 234.085 650 265L652 264C650.44 294.451 616.898 313.34 592 323L592 324C610.092 319.052 624.698 308.122 640 298L641 307C647.847 308.073 654.542 314.673 657 321C654.542 321.517 653.477 322.583 656 324L656 325L656 326C653.493 328.211 655.653 330.155 654.562 333C652.922 337.282 644.147 345.303 649 350L647 356C648.633 359.931 643.996 362.073 641 364L642 367C631.606 372.092 625.837 384.607 613 384C606.741 390.853 591.927 389.32 589 399L578 398L578 400L564 395L565 398C561.451 397.193 559.097 396.777 557 400C552.602 399.543 545.036 399.508 542 403L541 403C539.274 400.251 537.92 399.44 535 401C529.234 387.041 539.872 379.33 540 365C537.611 365.848 531.685 375.141 531 370L530 370L528 374L527 374L526 371L526 375L523 375L523 376C526.421 376 523.363 378.477 522 380L523 377L521 378L522 374L521 374L512 396L512 397C497.564 399.246 496.773 416.331 479 412L448 419L448 416L447 416L430 417.285L385 421L385 420C415.594 414.067 435.827 402.168 458.83 381.31C468.248 372.77 478.987 362.918 484 351L502 352L502 351L488 345L488 340L456.715 376.675L426 398.78L403.985 414.29L368 421L368 422L437 428L429 438C453.411 433.401 474.962 424.89 498 416L497 423L496 421L495 421C495.105 425.883 495.609 429.37 500 432L499 429L510 438L511 438C516.812 432.424 521.232 438.538 527.776 436.678C531.858 435.518 532.482 429.65 535.96 427.348C541.053 423.976 552.078 426.364 558 427L559 424L562 426L563 426L565 424C565.968 428.542 575.738 429.764 580 431L587 425L591 426L592 426C594.562 423.602 599.582 424.995 603 424.407C609.106 423.359 614.167 419.673 618 415L621 417L621 413L629 412L633 408L654 388L661 389L667 376L670 377L674 371L678 371L690 352L687 348L686 348L683 353L685 342L685 341L683 339L691 333L691 332L689 330L694 331L691 329L692 326L694 328L695 328C694.694 323.935 695.462 322.084 699 320L698 317L715 307L715 306L711 304L711 303L711 302L715 300L714 303L717 298L711 300L713 290L713 289L708 290L705 287L705 286L708 285L708 284L695 279L697 276L692 277C691.135 272.927 686.62 273.711 684 276L683 276L681 274L681 273L683 271L677 275L678 272L675 274L663 266L654 267C652.272 260.475 655.197 253.63 655.83 247C656.856 236.261 656.965 223.338 653.641 213C641.434 175.03 603.418 162.99 568 157.246C558.696 155.737 544.989 151.939 536 153L541 124C556.297 132.029 574.498 133.645 589.957 139.871C596.857 142.65 604.107 149.493 611 153.208C640.862 169.303 668.043 186.462 691.96 210.985C701.898 221.175 713.278 233.534 718.467 247C721.664 255.299 725.909 263.509 728.521 272C729.583 275.452 728.227 279.542 731 282L740.116 324.576L727 381L731 380L728 389L725 390C727.51 395.351 722.815 402.284 720.089 407C712.374 420.346 702.729 432.288 692.514 443.826C649.92 491.939 591.817 527.674 531 547.833C428.829 581.699 314.294 584.638 211 554.424C163.231 540.452 114.207 517.425 77 483.83C58.9154 467.502 42.6838 449.114 30.4244 428C-3.43066 369.693 -0.821327 299.016 38.4275 244C59.1038 215.018 88.1041 192.509 118 173.772C139.99 159.991 168.096 141.618 194 137L199 101C193.495 108.389 197.723 121.376 192.397 127.501C187.815 132.769 176.296 134.987 170 137.782C153.91 144.924 138.086 153.397 123 162.449C63.8722 197.929 5.8728 256.805 4.16435 330C2.50208 401.217 42.2406 467.379 100.09 507.183C124.327 523.86 151.808 536.622 179 547.604C310.516 600.72 473.346 587.157 599 524.37C646.118 500.827 692.781 469.437 721.467 423.996C732.57 406.408 742.672 387.306 747.661 367C767.684 285.503 711.166 209.627 646 166.862C629.134 155.794 608.975 144.485 590 137.544C576.323 132.541 556.964 128.649 545.133 120.157C539.848 116.364 539.571 107.724 537.644 102C534.457 92.5303 528.857 83.6785 522.536 76C500.173 48.8354 462.343 35.9028 429 28.9969C376.44 18.1107 314.38 21.4939 265 43.6945C250.656 50.1436 228.38 58.9323 220 73z"/>
    <path style="fill:#336699; stroke:none;" d="M318 30L318 31L354 27.0146L426 31C418.727 27.5051 408.941 27.6843 401 26.8341C372.829 23.8181 345.981 27.7883 318 30z"/>
    <path style="fill:#ff5500; stroke:none;" d="M57 26L58 27L57 26z"/>
    <path style="fill:#996600; stroke:none;" d="M348 27L348 28L352 28L348 27z"/>
    <path style="fill:#99ff33; stroke:none;" d="M212 274L205 274L205 279L202 283L198 283L183 309L180 309L177 323C165.943 330.575 175.827 353.528 174 364C178.41 366.668 179.569 372.091 180 377L185 378L183 379L183 380C188.176 383.304 194.122 394.847 195 401L202 403L208 416C229.632 421.143 211.684 443.548 211.252 457.025C211.138 460.57 213.922 463.734 215 467L219 467C220.874 472.641 229.662 473.842 235 474L239 468L239 472L269 473L269 476L281.83 475.949L303 486L303 482L312 482L311 478L340.09 477.95L349.142 474.852L347 455L350 455C349.834 440.275 318.484 439.956 307 435.124C270.266 419.667 239.559 401.098 219.864 365C211.316 349.332 210.606 319.18 226 307C230.247 317.202 238.16 327.521 240.14 338.486C242.429 351.155 237.58 368.206 242.353 380C247.781 393.414 264.718 413.538 279.015 418.163C282.983 419.447 286.142 416.064 289.961 417.037C293.576 417.958 295.588 421.846 299.015 423.272C307.889 426.968 316.74 427.281 326 429C327.987 420.05 312.666 413.419 307 408C322.709 411.723 340.374 420.434 356.996 416.54C363.932 414.915 371.776 409.581 378 406.1C383.243 403.168 392.853 402.175 395 396C406.098 394.764 419.788 373.721 421 363C429.181 360.2 432.935 347.785 433 340C437.297 338.738 436.287 334.844 436.963 331.019C438.43 322.721 439.971 314.595 440 306L441 306L441 320L442 320L443.981 261.015L441.044 248.999L440 218C446.34 212.801 448.334 204.133 456.015 199.013C483.463 180.714 522.219 167.669 533.641 133C549.802 83.9509 497.042 52.2997 458 39.3333C401.661 20.6224 337.299 23.3021 281 40.2801C253.717 48.5079 224.721 63.4015 207.746 87C195.696 103.752 196 121.318 196 141C196 171.234 200.663 202.129 205.275 232C207.386 245.676 212.752 260.121 212 274z"/>
    <path style="fill:#996600; stroke:none;" d="M394 27L395 28L394 27M337 28L338 29L337 28M323 30L324 31L323 30M419.667 30.3333L420.333 30.6667L419.667 30.3333z"/>
    <path style="fill:#336699; stroke:none;" d="M312 31L312 32L317 32L312 31z"/>
    <path style="fill:#996600; stroke:none;" d="M317 31L318 32L317 31M426 31L427 32L426 31z"/>
    <path style="fill:#336699; stroke:none;" d="M427 31L427 32L440 34L427 31M308 32L308 33L311 33L308 32z"/>
    <path style="fill:#996600; stroke:none;" d="M311 32L312 33L311 32M431 32L432 33L431 32z"/>
    <path style="fill:#336699; stroke:none;" d="M303 33L303 34L307 34L303 33M298 34L298 35L302 35L298 34z"/>
    <path style="fill:#996600; stroke:none;" d="M302 34L303 35L302 34z"/>
    <path style="fill:#336699; stroke:none;" d="M440 34L440 35L444 35L440 34M295 35L295 36L298 36L295 35M444 35L444 36L448 36L444 35M291.667 36.3333L292.333 36.6667L291.667 36.3333z"/>
    <path style="fill:#996600; stroke:none;" d="M293 36L294 37L293 36M448 36L449 37L448 36z"/>
    <path style="fill:#336699; stroke:none;" d="M449 36L449 37L452 37L449 36M287 37L287 38L290 38L287 37M452 37L452 38L455 38L452 37z"/>
    <path style="fill:#1f1b14; stroke:none;" d="M7 38L8 39L7 38z"/>
    <path style="fill:#336699; stroke:none;" d="M284.667 38.3333L285.333 38.6667L284.667 38.3333z"/>
    <path style="fill:#996600; stroke:none;" d="M286 38L287 39L286 38M455 38L456 39L455 38z"/>
    <path style="fill:#336699; stroke:none;" d="M456.667 38.3333L457.333 38.6667L456.667 38.3333M281.667 39.3333L282.333 39.6667L281.667 39.3333z"/>
    <path style="fill:#996600; stroke:none;" d="M283 39L284 40L283 39M458 39L459 40L458 39z"/>
    <path style="fill:#336699; stroke:none;" d="M459.667 39.3333L460.333 39.6667L459.667 39.3333M278.667 40.3333L279.333 40.6667L278.667 40.3333z"/>
    <path style="fill:#996600; stroke:none;" d="M280 40L281 41L280 40z"/>
    <path style="fill:#336699; stroke:none;" d="M461 40L461 41L464 41L461 40M275 41L276 42L275 41z"/>
    <path style="fill:#996600; stroke:none;" d="M276 41L277 42L276 41M464 41L465 42L464 41z"/>
    <path style="fill:#336699; stroke:none;" d="M465.667 41.3333L466.333 41.6667L465.667 41.3333M272.667 42.3333L273.333 42.6667L272.667 42.3333z"/>
    <path style="fill:#996600; stroke:none;" d="M467 42L468 43L467 42z"/>
    <path style="fill:#336699; stroke:none;" d="M468 42L469 43L468 42M270 43L271 44L270 43z"/>
    <path style="fill:#996600; stroke:none;" d="M271 43L272 44L271 43M368 45L367 45L360 52C354.176 51.811 351.281 47.2375 346 46.4915C338.662 45.4548 332.914 51.957 325.999 51.9413C319.269 51.9261 312.41 47.4266 306.17 47.6127C303.584 47.6898 301.943 50.2059 299.41 50.5525C274.837 53.9138 253.477 56.1917 233 72.6149C214.914 87.1202 201.105 111.139 213.12 134C215.569 138.659 218.232 143.564 223 146C217.483 133.951 209.124 124.074 213.304 110.004C214.471 106.075 217.266 103.324 218.955 99.6999C220.685 95.9887 220.907 92.9483 224 90L222 94L231 87L229 84L232 85C242.508 78.4341 256.366 65.312 269 64C275.932 56.0179 283.494 59.1962 293 59L294 55L304 58L306 56L312 55L313 55L317 56C323.121 64.5548 347.813 50.0897 351 63C355.618 66.2818 357.573 67.7413 363 65L362 68L365 68L365 69L360 80L366 78L368 87L366 85L363 86C358.336 80.6856 348.405 81.8555 342 81L344 86L352 87L349 90L349 91L356 91L357 95L347 94L323 100L322 101L323 103C314.348 105.869 319.627 110.968 322 117L323 117L323 115L324 115C323.343 119.499 321.569 122.863 317 124L320 118L313 120C318.127 113.848 312.23 108.081 313 105L310 112L314 115L308 114L306 116L306 117C315.757 118.538 315.386 128.304 315 136L310 131L313 126L308 126L308 125L312 125L303 117L304 125L300 125C304.647 134.288 292.282 132.273 290.742 140.019C288.946 149.053 296.19 153.442 300.064 160.039C305.097 168.611 298.529 177.529 312 182L312 183L283 178.445L264 174C278.636 183.673 301.852 187.248 319 189.167C360.242 193.781 400.555 191.553 441 181.486C455.967 177.761 474.277 172.978 485.282 161.845C489.625 157.451 499.178 150.015 491 145L494 139L496 140L497 140C497.611 130.111 495.509 127.844 491 119L483 126L482 115L486 114L486 112L476 109L478 105C470.953 102.995 465.007 100.698 463 93C459.898 92.0517 459.134 91.2506 459 88C449.523 88.6378 449.903 83.9308 452 76L450 80L447 77C441.741 77.8566 438.32 81.2882 436 86L434 86C432.761 79.9984 436.925 75.9268 436.851 70.0439C436.79 65.1299 433.106 65.4423 430.829 68.8688C429.889 70.2839 429.033 71.643 428 73L426 67L429 67L428 63L423 65L422 62L421 62L421 67C415.153 62.0317 405.632 56.9842 398 56C390.737 62.2687 386.339 47.7805 384 43C375.852 46.1364 376.596 56.4048 368 45M469 43L470 44L469 43z"/>
    <path style="fill:#336699; stroke:none;" d="M470.667 43.3333L471.333 43.6667L470.667 43.3333M267 44L268 45L267 44z"/>
    <path style="fill:#996600; stroke:none;" d="M268 44L269 45L268 44z"/>
    <path style="fill:#336699; stroke:none;" d="M472.667 44.3333L473.333 44.6667L472.667 44.3333M265 45L266 46L265 45z"/>
    <path style="fill:#996600; stroke:none;" d="M266 45L267 46L266 45M474 45L475 46L474 45z"/>
    <path style="fill:#336699; stroke:none;" d="M475.667 45.3333L476.333 45.6667L475.667 45.3333M263 46L264 47L263 46M477.667 46.3333L478.333 46.6667L477.667 46.3333M260 47L261 48L260 47z"/>
    <path style="fill:#996600; stroke:none;" d="M261 47L262 48L261 47M479 47L480 48L479 47z"/>
    <path style="fill:#336699; stroke:none;" d="M480 47L481 48L480 47M258 48L259 49L258 48z"/>
    <path style="fill:#996600; stroke:none;" d="M259 48L260 49L259 48M481 48L482 49L481 48z"/>
    <path style="fill:#336699; stroke:none;" d="M482 48L483 49L482 48M256 49L257 50L256 49M484 49L485 50L484 49M254 50L255 51L254 50M486 50L487 51L486 50M252 51L253 52L252 51M488 51L489 52L488 51M250 52L251 53L250 52M490 52L491 53L490 52z"/>
    <path style="fill:#996600; stroke:none;" d="M248 53L249 54L248 53M491 53L492 54L491 53z"/>
    <path style="fill:#336699; stroke:none;" d="M492 53L493 54L492 53M246 54L247 55L246 54z"/>
    <path style="fill:#996600; stroke:none;" d="M493 54L494 55L493 54z"/>
    <path style="fill:#336699; stroke:none;" d="M494 54L495 55L494 54z"/>
    <path style="fill:#996600; stroke:none;" d="M245 55L246 56L245 55z"/>
    <path style="fill:#ff5500; stroke:none;" d="M294 55L293 59C284.055 59.073 274.501 54.6962 269 64C262.169 63.4541 251.758 71.4531 246 75.0502C226.532 87.2127 203.65 107.742 215.324 133C230.209 165.206 278.7 183 312 183L312 182C300.044 176.04 304.548 169.817 300.617 160.209C297.785 153.288 289.633 150.02 290.998 141.005C292.202 133.043 305.774 134.103 300 125L304 125L303 117L312 125L308 125L308 126L313 126L310 131L315 136C315.893 128.205 316.458 117.806 306 117L306 116L308 114L314 115L310 112L313 105L313 120L320 118L317 124L320 125L324 115L323 115L323 117L322 117L318.083 107.083L322 101L323 100L347 94L357 95L356 91L349 91L349 90L352 87L344 86L342 81L363 86L368 87L366 78L360 80L365 68L362 68L363 65C357.203 67.0887 356.152 65.5145 351 63C351.168 52.6037 323.131 61.371 317 56L313 55L312 55L304 58L294 55z"/>
    <path style="fill:#996600; stroke:none;" d="M495 55L496 56L495 55M243 56L244 57L243 56z"/>
    <path style="fill:#336699; stroke:none;" d="M265 56L266 57L265 56z"/>
    <path style="fill:#996600; stroke:none;" d="M496 56L497 57L496 56z"/>
    <path style="fill:#336699; stroke:none;" d="M497 56L498 57L497 56M241 57L242 58L241 57z"/>
    <path style="fill:#996600; stroke:none;" d="M498 57L499 58L498 57M240 58L241 59L240 58z"/>
    <path style="fill:#336699; stroke:none;" d="M500 58L501 59L500 58z"/>
    <path style="fill:#996600; stroke:none;" d="M238 59L239 60L238 59z"/>
    <path style="fill:#336699; stroke:none;" d="M501 59L502 60L501 59M236 60L237 61L236 60z"/>
    <path style="fill:#996600; stroke:none;" d="M502 60L503 61L502 60z"/>
    <path style="fill:#336699; stroke:none;" d="M503 60L504 61L503 60z"/>
    <path style="fill:#996600; stroke:none;" d="M235 61L236 62L235 61z"/>
    <path style="fill:#336699; stroke:none;" d="M504 61L505 62L504 61z"/>
    <path style="fill:#996600; stroke:none;" d="M234 62L235 63L234 62z"/>
    <path style="fill:#336699; stroke:none;" d="M254 62L255 63L254 62z"/>
    <path style="fill:#996600; stroke:none;" d="M505 62L506 63L505 62z"/>
    <path style="fill:#ff5500; stroke:none;" d="M3 63L3 65L5 65L3 63z"/>
    <path style="fill:#996600; stroke:none;" d="M232 63L233 64L232 63z"/>
    <path style="fill:#336699; stroke:none;" d="M252 63L251 65L252 63z"/>
    <path style="fill:#996600; stroke:none;" d="M506 63L507 64L506 63z"/>
    <path style="fill:#336699; stroke:none;" d="M507 63L508 64L507 63z"/>
    <path style="fill:#ff5500; stroke:none;" d="M12 64L10 67L12 64z"/>
    <path style="fill:#336699; stroke:none;" d="M508 64L509 65L508 64z"/>
    <path style="fill:#ff5500; stroke:none;" d="M1 65L2 66L1 65z"/>
    <path style="fill:#996600; stroke:none;" d="M229 65L230 66L229 65M509 65L510 66L509 65z"/>
    <path style="fill:#ff5500; stroke:none;" d="M5 66L4 69L1 67L0 100L14 101C16.3136 108.909 26.6686 100.76 30 107L35 104L41 105L44 106L45 104L43 103L43 102C50.0007 105.85 58.1467 104.999 66 105L67 101L64 100L64 99L72 100C72.7836 104.73 80.46 99.2988 82 97L78 98C79.7004 95.9694 81.5986 94.029 83 97L84 97L88 92L88 95L94 97L95 97L94 93C99.7884 93.731 104.411 94.4455 108 89L100 91L102 90L102 89L100 88L103 88L100 85L100 84L107 88L108 88L107 82L101 83L101 79L82 79L83 76L82 76L81 79L76 76L65 79C64.4211 77.0897 64.0146 75.6664 63 78L62 78L54 74.9445L32 68L31 71L21 72L18 69L19 71L18 71L14 68L13 68L7 66L5 66z"/>
    <path style="fill:#996600; stroke:none;" d="M228 66L229 67L228 66z"/>
    <path style="fill:#336699; stroke:none;" d="M244 66L246 68L246 66L244 66M247 66L247 68L251 68L251 66L247 66z"/>
    <path style="fill:#996600; stroke:none;" d="M510 66L511 67L510 66M511 67L512 68L511 67z"/>
    <path style="fill:#336699; stroke:none;" d="M512 67L513 68L512 67z"/>
    <path style="fill:#996600; stroke:none;" d="M225 68L226 69L225 68z"/>
    <path style="fill:#336699; stroke:none;" d="M513 68L514 69L513 68z"/>
    <path style="fill:#ff5500; stroke:none;" d="M26.6667 69.3333L27.3333 69.6667L26.6667 69.3333M48 69L49 70L48 69z"/>
    <path style="fill:#996600; stroke:none;" d="M224 69L225 70L224 69z"/>
    <path style="fill:#ff5500; stroke:none;" d="M378 69L380 71L380 69L378 69z"/>
    <path style="fill:#336699; stroke:none;" d="M514 69L515 70L514 69z"/>
    <path style="fill:#996600; stroke:none;" d="M223 70L224 71L223 70z"/>
    <path style="fill:#336699; stroke:none;" d="M515 70L516 71L515 70z"/>
    <path style="fill:#1f1b14; stroke:none;" d="M9 71L10 72L9 71z"/>
    <path style="fill:#996600; stroke:none;" d="M222 71L223 72L222 71z"/>
    <path style="fill:#ff5500; stroke:none;" d="M368 71L367 75L372 75L368 71z"/>
    <path style="fill:#336699; stroke:none;" d="M516 71L517 72L516 71z"/>
    <path style="fill:#996600; stroke:none;" d="M516.667 72.3333L517.333 72.6667L516.667 72.3333z"/>
    <path style="fill:#1f1b14; stroke:none;" d="M7 73L8 74L7 73z"/>
    <path style="fill:#ff5500; stroke:none;" d="M218 73L212 81L218 73z"/>
    <path style="fill:#336699; stroke:none;" d="M219 73L220 74L219 73z"/>
    <path style="fill:#ff5500; stroke:none;" d="M392 73L392 75L394 75L394 73L392 73z"/>
    <path style="fill:#996600; stroke:none;" d="M518 73L521 77L518 73z"/>
    <path style="fill:#1f1b14; stroke:none;" d="M49 74L50 75L49 74z"/>
    <path style="fill:#336699; stroke:none;" d="M218 74L219 75L218 74z"/>
    <path style="fill:#ff5500; stroke:none;" d="M385 74L386 75L385 74M387 76L390 74L387 76z"/>
    <path style="fill:#336699; stroke:none;" d="M519 74L520 75L519 74z"/>
    <path style="fill:#ff5500; stroke:none;" d="M80.6667 75.3333L81.3333 75.6667L80.6667 75.3333z"/>
    <path style="fill:#996600; stroke:none;" d="M217 75L218 76L217 75z"/>
    <path style="fill:#1f1b14; stroke:none;" d="M287 75L285 80L284 80L284 77C271.265 78.8386 243 87.2895 240 102C230.314 103.443 223.255 112.558 222 122L219 121C216.211 147.135 253.04 171.786 277 172C275.555 154.307 265.577 124.607 286 115L286 109L283 106L279 108C280.342 104.096 282.001 102.149 286 101L282 83L288 83L294 88L293 80L292 83L287 75M292 75L292 79L293 79L292 75z"/>
    <path style="fill:#336699; stroke:none;" d="M520 75L521 76L520 75z"/>
    <path style="fill:#1f1b14; stroke:none;" d="M31 76L32 77L31 76z"/>
    <path style="fill:#996600; stroke:none;" d="M216 76L217 77L216 76z"/>
    <path style="fill:#1f1b14; stroke:none;" d="M314 78L315 79L317 76L314 78z"/>
    <path style="fill:#336699; stroke:none;" d="M215 77L216 78L215 77z"/>
    <path style="fill:#996600; stroke:none;" d="M521 77L522 78L521 77z"/>
    <path style="fill:#1f1b14; stroke:none;" d="M333 78L335 80L335 78L333 78z"/>
    <path style="fill:#996600; stroke:none;" d="M522 78L523 79L522 78z"/>
    <path style="fill:#1f1b14; stroke:none;" d="M306 79L307 80L306 79z"/>
    <path style="fill:#996600; stroke:none;" d="M523 79L525 82L523 79z"/>
    <path style="fill:#1f1b14; stroke:none;" d="M85 80L82 82L82 83L87 80L85 80z"/>
    <path style="fill:#ff5500; stroke:none;" d="M371 80L373 82L371 80M377 80L375 89L380 86L380 85L378 85L378 83L380 84L380 83L377 80z"/>
    <path style="fill:#99ff33; stroke:none;" d="M429.333 80.6667L429.667 81.3333L429.333 80.6667z"/>
    <path style="fill:#336699; stroke:none;" d="M524 80L525 81L524 80z"/>
    <path style="fill:#1f1b14; stroke:none;" d="M92 81L92 82L95 82L92 81z"/>
    <path style="fill:#ff5500; stroke:none;" d="M211 81L199 100L200 100L211 81M280.667 81.3333L281.333 81.6667L280.667 81.3333z"/>
    <path style="fill:#996600; stroke:none;" d="M361 81L362 82L361 81z"/>
    <path style="fill:#ff5500; stroke:none;" d="M406 81L407 82L406 81z"/>
    <path style="fill:#99ff33; stroke:none;" d="M447 81L446 85L449 81L447 81z"/>
    <path style="fill:#1f1b14; stroke:none;" d="M87 82L87 83L91 83L87 82z"/>
    <path style="fill:#996600; stroke:none;" d="M211 82L212 83L211 82z"/>
    <path style="fill:#ff5500; stroke:none;" d="M414 82L415 83L414 82z"/>
    <path style="fill:#996600; stroke:none;" d="M525 82L527 85L525 82z"/>
    <path style="fill:#ff5500; stroke:none;" d="M117 83L118 84L117 83z"/>
    <path style="fill:#996600; stroke:none;" d="M210 83L211 84L210 83z"/>
    <path style="fill:#336699; stroke:none;" d="M225 83L226 84L225 83M231 83L229 84L229 85L231 83z"/>
    <path style="fill:#ff5500; stroke:none;" d="M349 83L350 84L349 83M369.667 83.3333L370.333 83.6667L369.667 83.3333z"/>
    <path style="fill:#996600; stroke:none;" d="M458 83L460 87L461 83L458 83z"/>
    <path style="fill:#336699; stroke:none;" d="M526 83L527 84L526 83z"/>
    <path style="fill:#1f1b14; stroke:none;" d="M88 86L94 88L94 84L88 86M98.3333 84.6667L98.6667 85.3333L98.3333 84.6667z"/>
    <path style="fill:#996600; stroke:none;" d="M209 84L210 85L209 84z"/>
    <path style="fill:#ff5500; stroke:none;" d="M395.667 84.3333L396.333 84.6667L395.667 84.3333M402.667 84.3333L403.333 84.6667L402.667 84.3333M442 84L443 85L442 84z"/>
    <path style="fill:#996600; stroke:none;" d="M452 84L452 87L454 84L452 84z"/>
    <path style="fill:#ff5500; stroke:none;" d="M104 85L103 89L106 85L104 85M110 85L110 86L113 86L110 85z"/>
    <path style="fill:#996600; stroke:none;" d="M208 85L209 86L208 85z"/>
    <path style="fill:#1f1b14; stroke:none;" d="M297 85L299 87L299 85L297 85z"/>
    <path style="fill:#336699; stroke:none;" d="M527 85L528 86L527 85z"/>
    <path style="fill:#ff5500; stroke:none;" d="M89 86L89 87L92 87L89 86z"/>
    <path style="fill:#336699; stroke:none;" d="M225 86L223 89L224 90L225 86z"/>
    <path style="fill:#ff5500; stroke:none;" d="M357 86L356 89L357 86M371 86L371 88L373 88L373 86L371 86z"/>
    <path style="fill:#996600; stroke:none;" d="M527 86L528 87L527 86M207 87L208 88L207 87z"/>
    <path style="fill:#ff5500; stroke:none;" d="M416 87L417 88L416 87z"/>
    <path style="fill:#996600; stroke:none;" d="M528 87L530 90L528 87z"/>
    <path style="fill:#ff5500; stroke:none;" d="M109 91L112 88L109 91z"/>
    <path style="fill:#996600; stroke:none;" d="M206 88L207 89L206 88M224 88L225 89L224 88z"/>
    <path style="fill:#ff5500; stroke:none;" d="M368 88L369 91L368 88z"/>
    <path style="fill:#996600; stroke:none;" d="M463 88L464 89L463 88z"/>
    <path style="fill:#336699; stroke:none;" d="M529 88L530 89L529 88z"/>
    <path style="fill:#ff5500; stroke:none;" d="M113 89L114 90L113 89z"/>
    <path style="fill:#1f1b14; stroke:none;" d="M312.667 89.3333L313.333 89.6667L312.667 89.3333z"/>
    <path style="fill:#ff5500; stroke:none;" d="M387 89L390 92L388 95L393 89L387 89z"/>
    <path style="fill:#996600; stroke:none;" d="M470.333 89.6667L470.667 90.3333L470.333 89.6667M205 90L206 91L205 90z"/>
    <path style="fill:#336699; stroke:none;" d="M222 90L220 98L221 98L224 90L222 90z"/>
    <path style="fill:#ff5500; stroke:none;" d="M379 90L379 92L382 92L382 90L379 90z"/>
    <path style="fill:#99ff33; stroke:none;" d="M453.667 90.3333L454.333 90.6667L453.667 90.3333z"/>
    <path style="fill:#996600; stroke:none;" d="M530.333 90.6667L530.667 91.3333L530.333 90.6667M204 91L205 92L204 91z"/>
    <path style="fill:#1f1b14; stroke:none;" d="M287 91L291 94L287 91z"/>
    <path style="fill:#ff5500; stroke:none;" d="M373 94L377 94C375.42 91.8541 374.538 91.8296 373 94z"/>
    <path style="fill:#336699; stroke:none;" d="M224 92L225 93L224 92z"/>
    <path style="fill:#996600; stroke:none;" d="M353 92L354 93L353 92z"/>
    <path style="fill:#ff5500; stroke:none;" d="M357.333 92.6667L357.667 93.3333L357.333 92.6667z"/>
    <path style="fill:#336699; stroke:none;" d="M531 92L532 93L531 92z"/>
    <path style="fill:#996600; stroke:none;" d="M203 93L204 94L203 93z"/>
    <path style="fill:#ff5500; stroke:none;" d="M363.667 93.3333L364.333 93.6667L363.667 93.3333M368 94L368 95L372 96L372 93L368 94M401 93L402 94L401 93M446 93L447 94L446 93z"/>
    <path style="fill:#996600; stroke:none;" d="M471.333 93.6667L471.667 94.3333L471.333 93.6667M531 93L532 94L531 93z"/>
    <path style="fill:#ff5500; stroke:none;" d="M85 94L85 96L87 96L87 94L85 94z"/>
    <path style="fill:#336699; stroke:none;" d="M218 94L219 95L218 94z"/>
    <path style="fill:#ff5500; stroke:none;" d="M380.333 94.6667L380.667 95.3333L380.333 94.6667M397 94L398 95L397 94z"/>
    <path style="fill:#336699; stroke:none;" d="M532.333 94.6667L532.667 95.3333L532.333 94.6667z"/>
    <path style="fill:#996600; stroke:none;" d="M202 95L203 96L202 95z"/>
    <path style="fill:#1f1b14; stroke:none;" d="M310 95L310 97L312 97L310 95z"/>
    <path style="fill:#ff5500; stroke:none;" d="M403 95L403 96L406 96L403 95z"/>
    <path style="fill:#996600; stroke:none;" d="M201.333 96.6667L201.667 97.3333L201.333 96.6667z"/>
    <path style="fill:#1f1b14; stroke:none;" d="M290 96L291 97L290 96z"/>
    <path style="fill:#ff5500; stroke:none;" d="M413 96L414 97L413 96M427 96L430 98L427 96z"/>
    <path style="fill:#996600; stroke:none;" d="M532 96L533 99L534 99L534 96L532 96z"/>
    <path style="fill:#ff5500; stroke:none;" d="M253 97L254 98L253 97z"/>
    <path style="fill:#1f1b14; stroke:none;" d="M327 97L327 99L330 99L330 97L327 97z"/>
    <path style="fill:#ff5500; stroke:none;" d="M374 97L377 99L374 97z"/>
    <path style="fill:#996600; stroke:none;" d="M469 97L473 102L471 97L469 97M200.333 98.6667L200.667 99.3333L200.333 98.6667z"/>
    <path style="fill:#ff5500; stroke:none;" d="M333.667 98.3333L334.333 98.6667L333.667 98.3333M408 98L408 100L410 100L410 98L408 98z"/>
    <path style="fill:#336699; stroke:none;" d="M534 98L535 103L536 103L534 98z"/>
    <path style="fill:#996600; stroke:none;" d="M199 100L199 103L200 103L199 100z"/>
    <path style="fill:#ff5500; stroke:none;" d="M280 100L281 101L280 100M418 102L419 103L421 100L418 102M5.66667 101.333L6.33333 101.667L5.66667 101.333M9.33333 101.667L9.66667 102.333L9.33333 101.667z"/>
    <path style="fill:#336699; stroke:none;" d="M214 101L215 102L214 101z"/>
    <path style="fill:#ff5500; stroke:none;" d="M371 101L371 103L373 103L373 101L371 101M381 101L382 102L381 101z"/>
    <path style="fill:#996600; stroke:none;" d="M534 101L535 102L534 101z"/>
    <path style="fill:#1f1b14; stroke:none;" d="M47 102L48 103L47 102z"/>
    <path style="fill:#ff5500; stroke:none;" d="M328.667 102.333L329.333 102.667L328.667 102.333M433 105L437 104L433 105z"/>
    <path style="fill:#1f1b14; stroke:none;" d="M23 103L24 104L23 103z"/>
    <path style="fill:#996600; stroke:none;" d="M198 103L198 106L199 106L198 103z"/>
    <path style="fill:#336699; stroke:none;" d="M213.667 103.333L214.333 103.667L213.667 103.333z"/>
    <path style="fill:#ff5500; stroke:none;" d="M268 103L273 108L268 103M381 103L381 105L383 105L381 103M385 103L389 105L385 103z"/>
    <path style="fill:#99ff33; stroke:none;" d="M463 103L465 106L463 103z"/>
    <path style="fill:#ff5500; stroke:none;" d="M466.333 103.667L466.667 104.333L466.333 103.667z"/>
    <path style="fill:#996600; stroke:none;" d="M535.333 103.667L535.667 104.333L535.333 103.667z"/>
    <path style="fill:#ff5500; stroke:none;" d="M326.333 104.667L326.667 105.333L326.333 104.667z"/>
    <path style="fill:#996600; stroke:none;" d="M482 104L483 105L482 104z"/>
    <path style="fill:#336699; stroke:none;" d="M536 104L536 107L537 107L536 104z"/>
    <path style="fill:#ff5500; stroke:none;" d="M320 105L326 110L320 105M342 105L343 106L342 105M360 105L361 106L360 105M374 105L375 106L374 105M392 105L393 106L392 105M403 107L406 107L405 105L403 107z"/>
    <path style="fill:#336699; stroke:none;" d="M197 106L198 107L197 106z"/>
    <path style="fill:#ff5500; stroke:none;" d="M348 106L349 107L348 106M412 108L415 108L414 106L412 108z"/>
    <path style="fill:#996600; stroke:none;" d="M197.333 107.667L197.667 108.333L197.333 107.667z"/>
    <path style="fill:#ff5500; stroke:none;" d="M376 108L380 110L379 107L376 108z"/>
    <path style="fill:#996600; stroke:none;" d="M536 107L536 110L537 110L536 107z"/>
    <path style="fill:#336699; stroke:none;" d="M213 108L214 109L213 108z"/>
    <path style="fill:#ff5500; stroke:none;" d="M329 108L328 110L330 110L329 108z"/>
    <path style="fill:#336699; stroke:none;" d="M537 108C537 137.269 520.33 159.446 495.996 175.201C482.467 183.96 465.559 190.285 453.17 200.443C446.809 205.659 444.886 211.983 440 218L442 320L441 320L441 306L440 306C439.91 313.362 440.075 336.481 433 340C432.824 348.24 428.435 358.777 421 363C418.839 373.64 405.959 393.789 395 396C391.696 401.718 383.565 402.665 378 405.541C371.036 409.14 362.761 415.415 355 416.74C338.323 419.587 322.859 410.375 307 408C312.024 414.822 326.796 419.576 326 429C317.204 426.906 308.59 426.802 300.004 423.272C296.488 421.827 294.452 418.202 290.91 416.913C286.699 415.38 283.208 419.236 279.015 417.718C264.751 412.552 246.714 392.086 241.97 378C238.208 366.83 242.007 351.06 240.583 339.255C239.303 328.649 231.321 316.117 226 307C211.904 314.389 213.05 342.175 215.884 355C225.017 396.325 272.895 424.61 310 436.575C320.858 440.076 349.59 441.314 350 455L347 455C347.02 460.849 351.461 468.539 349.138 473.941C347.447 477.874 343.743 478.036 340 477.869C330.488 477.445 320.259 479.245 311 478L312 482L303 482L303 486L281.83 475.567L269 476L269 473L239 472L239 468L235 474C229.456 473.64 221.794 472.166 219 467L215 467C214.325 463.648 211.38 460.428 211.523 457.025C212.047 444.543 230.28 418.984 208 416L202 403L195 401C194.888 395.675 188.054 381.083 183 380L183 379L185 378L180 377C179.85 372.308 179.082 365.48 174 364C177.292 351.655 166.258 334.116 177 323L180 309L183 309L198 283L202 283L205 279L205 274L212 274C213.518 259.758 207.158 244.096 205.131 230C200.46 197.51 196 164.843 196 132L195 132L194 137C176.375 138.805 156.367 151.681 141 160C92.538 186.235 41.931 222.324 20 275L21 275L31 255C38.259 250.993 42.6295 240.428 48.4198 234.336C61.5168 220.554 79.2084 204.245 97 197C88.2345 209.211 74.4251 218.139 64.0394 229C46.09 247.771 31.723 270.857 24.7454 296C3.80484 371.456 55.2934 437.724 115 477.333C154.204 503.34 197.725 517.374 243 528.235C305.981 543.345 371.378 549.251 436 543.812C463.805 541.471 491.381 533.567 519 530L519 531L512 537L512 538L514 535L525 537C520.455 542.734 511.771 544.019 505 546.178C486.723 552.007 467.608 555.447 449 559.899C377.574 576.988 301.203 572.41 230 556.486C209.917 551.995 187.879 545.606 169.09 537.255C160.717 533.533 148.029 524.483 139 525L130 518L123 516L123 517C227.726 572.738 344.683 586.404 461 565.424C506.163 557.279 553.632 545.242 593.015 520.895C634.629 495.168 671.761 470.614 703.095 432C710.556 422.806 717.642 413.811 722.691 403C724.693 398.715 727.861 394.325 725 390L728 389L731 380L727 381L740.265 324.961L731 282C728.429 278.314 729.185 272.452 727.396 268C721.596 253.565 716.233 239.501 706.761 227C681.826 194.093 647.684 172.441 612 153.208C604.964 149.416 597.875 142.914 590.896 139.858C587.527 138.383 583.47 139.168 579.911 138.032C566.874 133.869 553.772 128.92 541 124L536 153C579.586 155.054 639.751 166.624 653.957 215C656.825 224.766 656.918 236.938 655.714 247C654.947 253.419 651.4 260.955 654 267L663 266L675 274L678 272L677 275L683 271L681 273L681 274L683 276L684 276C687.24 274.663 689.76 273.987 692 277L697 276L695 279L708 284L708 285L705 286L705 287L708 290L713 289L713 290L711 300L717 298L714 303L715 300L711 302L711 303L711 304L715 306L715 307L698 317L699 320C694.868 321.582 694.217 323.769 695 328L694 328L692 326L691 327L691 328L694 331L689 330L691 332L691 333L683 339L685 341L685 342L683 353L686 348L687 348L690 352L678 371L674 371L670 377L667 376L661 389L654 388L633 408C629.961 408.144 629.506 409.026 629 412L621 413L621 417L618 415L603 425L592 426L591 426L587 425L580 431L565 424L563 426L562 426L559 424L558 427C552.111 425.835 540.29 423.728 535.174 427.344C531.937 429.633 531.507 434.866 527.776 436.381C521.62 438.882 515.979 430.904 511 438L510 438C509.068 432.363 503.627 431.365 499 429L500 432C496.329 428.771 495.225 425.841 495 421L496 421L497 423L498 416L467 428.139L429 438L437 428L368 422L368 421L405.91 413.91L427 398.78L465.625 368.576L488 340L488 345C492.138 346.248 493.522 350.634 498.019 350.927C507.019 351.513 517.367 347.589 526 345.37C530.033 344.334 534.316 341.982 537 346L540 346C543.499 336.264 567.669 332.485 577 329.333C606.049 319.519 651.144 300.57 652 264L650 265C650 246.244 646.047 229.804 635.402 214C630.284 206.401 623.609 199.816 618.779 192C615.735 187.073 617.709 181.295 615.272 176.213C612.818 171.096 604.179 168.466 599 168L599 169L606 175C602.781 176.859 602.028 181.398 598.775 182.839C591.6 186.018 586.94 174.088 588 169L529 188C527.699 180.314 522.965 171.003 524.631 163.17C528.391 145.491 545.164 127.456 537 108z"/>
    <path style="fill:#ff5500; stroke:none;" d="M263 109L264 110L263 109M334.667 109.333L335.333 109.667L334.667 109.333z"/>
    <path style="fill:#996600; stroke:none;" d="M196 110L196 114L197 114L196 110z"/>
    <path style="fill:#1f1b14; stroke:none;" d="M303.667 110.333L304.333 110.667L303.667 110.333z"/>
    <path style="fill:#ff5500; stroke:none;" d="M401 112L404 110L401 112M341 111L341 113L343 111L341 111M426 111L427 112L426 111M325 112L325 114L327 114L327 112L325 112z"/>
    <path style="fill:#99ff33; stroke:none;" d="M390 179L389 174C379.932 171.2 368.595 174.769 359 174.985C350.96 175.166 342.941 172.985 336.005 168.775C330.157 165.226 329.472 160.487 336.005 157.417C352.799 149.522 374.298 156.746 392 151.275C398.383 149.303 409.108 143.375 403.258 135.301C398.292 128.447 386.296 127.255 379 124.091C373.43 121.675 370.986 116.16 365.946 113.457C357.689 109.029 345.525 113.288 339.109 119.005C332.612 124.792 334.131 136.4 328.251 143.995C322.401 151.551 303.656 156.975 306.473 168.985C307.602 173.796 312.95 175.974 317 177.822C328.373 183.011 341.568 184.505 354 183.961C366.411 183.417 377.864 181.254 390 179z"/>
    <path style="fill:#ff5500; stroke:none;" d="M420 112L421 113L420 112M431 112L432 113L431 112M439 112L439 114L442 114L442 112L439 112M453 112L454 113L453 112M384.333 113.667L384.667 114.333L384.333 113.667M448 115L451 115L450 113L448 115M401 114L401 116L405 116L405 114L401 114M390 116L390 117L394 118L393 115L390 116M412 116L412 117L416 117L412 116z"/>
    <path style="fill:#336699; stroke:none;" d="M195 116L196 117L195 116z"/>
    <path style="fill:#ff5500; stroke:none;" d="M328 116L331 119L332 116L328 116M379 116L379 118L383 118L383 116L379 116M426 116L426 118L428 118L426 116z"/>
    <path style="fill:#996600; stroke:none;" d="M195 117L195 132L196 132L195 117z"/>
    <path style="fill:#336699; stroke:none;" d="M211 118L212 119L211 118z"/>
    <path style="fill:#ff5500; stroke:none;" d="M411 118L412 119L411 118z"/>
    <path style="fill:#99ff33; stroke:none;" d="M426 121L431 118L426 121z"/>
    <path style="fill:#ff5500; stroke:none;" d="M439 118L440 120L441 120L442 118L439 118z"/>
    <path style="fill:#99ff33; stroke:none;" d="M453 118L451 119L451 120L453 118z"/>
    <path style="fill:#ff5500; stroke:none;" d="M463.667 118.333L464.333 118.667L463.667 118.333M325 119L326 120L325 119M377 120L377 121L381 121L377 120M383 119L384 120L383 119M389 119L389 120L393 121L389 119M403 122L407 120L403 122z"/>
    <path style="fill:#1f1b14; stroke:none;" d="M289 120L289 122L291 122L291 120L289 120z"/>
    <path style="fill:#99ff33; stroke:none;" d="M449.333 120.667L449.667 121.333L449.333 120.667z"/>
    <path style="fill:#ff5500; stroke:none;" d="M304.667 121.333L305.333 121.667L304.667 121.333M325 121L325 123L327 123L327 121L325 121M389 122L388 123L388 124L389 125L390 125L391 124L391 123L389 122M457 122L457 124L459 124L459 122L457 122z"/>
    <path style="fill:#996600; stroke:none;" d="M536 122L537 123L536 122z"/>
    <path style="fill:#1f1b14; stroke:none;" d="M282 124L283 125L282 124z"/>
    <path style="fill:#ff5500; stroke:none;" d="M323.333 124.667L323.667 125.333L323.333 124.667z"/>
    <path style="fill:#99ff33; stroke:none;" d="M409 125L409 127L411 125L409 125z"/>
    <path style="fill:#ff5500; stroke:none;" d="M327 127L327 129L332 129L332 127L327 127M320 127L320 129L322 129L322 127L320 127M426 127L427 129L428 129L429 127L426 127z"/>
    <path style="fill:#996600; stroke:none;" d="M535 128L536 129L535 128M534.333 130.667L534.667 131.333L534.333 130.667z"/>
    <path style="fill:#99ff33; stroke:none;" d="M491 134L497 131L491 134z"/>
    <path style="fill:#ff5500; stroke:none;" d="M322 133L321 134L321 136L326 134L322 133z"/>
    <path style="fill:#996600; stroke:none;" d="M533.333 133.667L533.667 134.333L533.333 133.667M532 136L533 137L532 136M531 138L532 139L531 138z"/>
    <path style="fill:#99ff33; stroke:none;" d="M545 138C544.184 142.601 543.85 146.175 548 149C548.991 145.921 549.797 142.477 546 142L545 138z"/>
    <path style="fill:#ff5500; stroke:none;" d="M320 140L320 142L322 142L320 140z"/>
    <path style="fill:#996600; stroke:none;" d="M530 140L531 141L530 140M585 141L585 142L591 144C591.6 139.979 588.005 140.189 585 141z"/>
    <path style="fill:#99ff33; stroke:none;" d="M585.956 142.046C582.604 143.349 575.636 147.897 575.636 151.971C575.636 157.681 587.725 159.76 591.768 158.067C596.743 155.984 591.302 139.969 585.956 142.046z"/>
    <path style="fill:#336699; stroke:none;" d="M220 142L221 143L220 142M223 145L222 146L231 154L223 145z"/>
    <path style="fill:#ff5500; stroke:none;" d="M311 149L310 151L312 151L311 149z"/>
    <path style="fill:#996600; stroke:none;" d="M229 153L230 154L229 153M231 153L230 154L234 157L231 153z"/>
    <path style="fill:#336699; stroke:none;" d="M233 154L241 160L241 159L233 154z"/>
    <path style="fill:#99ff33; stroke:none;" d="M411 160C414.959 160.385 416.6 159.004 416 155L411 160z"/>
    <path style="fill:#1f1b14; stroke:none;" d="M540 155L546 169L545 165L548 168C556.859 158.324 549.626 157.547 540 155z"/>
    <path style="fill:#ff5500; stroke:none;" d="M542 157L543 158L542 157z"/>
    <path style="fill:#996600; stroke:none;" d="M235 158L235 159L247 166L247 165L235 158z"/>
    <path style="fill:#336699; stroke:none;" d="M244 162L253 168L253 167L244 162z"/>
    <path style="fill:#99ff33; stroke:none;" d="M391 165L394 163L391 165M365 165L365 168L373 168L365 165z"/>
    <path style="fill:#336699; stroke:none;" d="M591.667 166.333L592.333 166.667L591.667 166.333z"/>
    <path style="fill:#996600; stroke:none;" d="M249 167L250 168L249 167M252 168L263 174C260.532 169.758 256.884 167.893 252 168z"/>
    <path style="fill:#336699; stroke:none;" d="M589 167L590 168L589 167z"/>
    <path style="fill:#996600; stroke:none;" d="M606 175C605.124 171.977 604.009 170.291 600.981 168.993C599.135 168.202 596.991 167.605 595.001 167.34C578.895 165.196 592.12 189.757 600.302 182.392C602.635 180.292 603.546 177.141 606 175z"/>
    <path style="fill:#336699; stroke:none;" d="M596.667 167.333L597.333 167.667L596.667 167.333z"/>
    <path style="fill:#99ff33; stroke:none;" d="M395 172C402.842 179.908 406.459 162.887 395 172M603 175L603 172C599.699 170.885 592.913 167.111 590.032 170.743C587.262 174.235 592.398 183.2 596.853 182.118C599.126 181.566 600.593 176.475 603 175z"/>
    <path style="fill:#336699; stroke:none;" d="M262 171L265 174L262 171z"/>
    <path style="fill:#99ff33; stroke:none;" d="M506 335C509.229 337.159 511.404 341.597 515.058 342.718C529.972 347.292 553.007 335.998 567 331.333C607.155 317.948 656.653 295.323 643.522 244C641.716 236.942 638.909 229.109 634.892 223C619.16 199.072 596.4 185.494 568 186.926C560.625 187.298 543.834 188.92 540.847 197.174C536.866 208.177 551.409 207.209 558 207.95C582.862 210.743 612.875 217.17 625.004 242C633.621 259.639 619.552 265.411 610.965 277.286C586.139 311.623 542.412 317.984 506 335z"/>
    <path style="fill:#1f1b14; stroke:none;" d="M639 191L648 203L639 191z"/>
    <path style="fill:#99ff33; stroke:none;" d="M97 196L97 197L101 196L97 196M525 537L514 535L512 538L512 537L519 531L519 530C491.022 532.227 463.061 542.609 435 543.737C328.547 548.015 219.203 537.045 125 482.85C70.5555 451.529 13.7017 390.922 20.1698 323C23.4709 288.335 38.9618 257.66 62.1698 232C72.2824 220.819 90.4137 210.59 97 197C80.2217 201.341 63.1778 219.151 51.5363 231.3C-8.7412 294.205 -3.19268 386.079 47.8881 452C69.4232 479.791 99.4721 500.769 130 517.478C204.944 558.496 290.355 572.735 375 570.036C413.444 568.809 450.78 560.309 488 551.258C497.423 548.966 520.292 545.97 525 537z"/>
    <path style="fill:#ff5500; stroke:none;" d="M114 199L115 205L114 205L114 202L109 206L107 207C99.8199 206.411 96.7599 211.983 90.9992 215.182C76.0206 223.499 53.7004 242.364 50 260L53 261C49.137 267.779 44.6356 268.033 39.6875 272.603C35.4475 276.518 33.1125 284.723 31.0895 290C24.2376 307.873 24.3003 323.995 26.8565 342.015C28.5265 353.787 28.5166 365.519 32.0394 377C39.1995 400.335 56.2482 419.995 72.9969 437C83.9463 448.117 96.824 459.581 111 466.428C115.567 468.634 118.722 472.169 124 472C125.117 475.26 126.605 475.998 130 476L136 479L141 483L140 480C145.138 478.893 140.898 476.007 138 475L137 478L136 478L134 470L138 471L134 468L129 453L126 453L126 447C128.127 447.552 133.091 450.936 134.777 448.377C136.938 445.099 131.661 439.822 129.585 437.71C119.807 427.761 112.982 416.984 105 406L103 396L100 398L82 359C85.0156 357.995 86.7053 357.179 86 360L90 358L90 357L87 356L83 344L88 344L88 340L85 340L87 313C78.4752 307.669 64.8943 295.034 68.5285 283.174C71.0713 274.875 88.1705 273.733 95 275C96.5604 272.114 105.461 267.201 100 266L100 265C102.146 263.496 104.204 259.918 102 258L112 243L110 237L116 234L116 233L113 234L111 229L115 229L118 226L118 219L119 219L119 224L120 224L120 221L121 221L122 223L123 222L120 217L124 220L126 217C123.391 215.225 124.01 214.239 126 212L118 210L118 209L126 209L120 206L120 200L114 199z"/>
    <path style="fill:#1f1b14; stroke:none;" d="M648 204L650 210L651 210L648 204z"/>
    <path style="fill:#336699; stroke:none;" d="M117 206L118 207L117 206z"/>
    <path style="fill:#99ff33; stroke:none;" d="M659 207C659.218 209.124 659.48 211.022 660.367 213C666.21 226.03 679.636 210.828 665.005 207.394C663.046 206.935 660.995 207.018 659 207z"/>
    <path style="fill:#ff5500; stroke:none;" d="M127 211L128 212L127 211z"/>
    <path style="fill:#1f1b14; stroke:none;" d="M651 212L653 233L654 233L651 212z"/>
    <path style="fill:#336699; stroke:none;" d="M117 214L118 215L117 214z"/>
    <path style="fill:#ff5500; stroke:none;" d="M124.667 215.333L125.333 215.667L124.667 215.333z"/>
    <path style="fill:#336699; stroke:none;" d="M115 222L116 223L115 222z"/>
    <path style="fill:#996600; stroke:none;" d="M57 225L58 226L57 225M56 226L57 227L56 226M54 228L55 229L54 228M53 229L54 230L53 229M50 232L51 233L50 232M47 236L50 233L47 236M44 238L45 239L44 238z"/>
    <path style="fill:#ff5500; stroke:none;" d="M113 239L114 240L113 239z"/>
    <path style="fill:#996600; stroke:none;" d="M43 240L44 241L43 240M42 241L43 242L42 241M40 242L39 246L40 246L42 242L40 242M38.3333 246.667L38.6667 247.333L38.3333 246.667z"/>
    <path style="fill:#ff5500; stroke:none;" d="M533 250C526.157 248.859 525.65 254.656 523.786 260C520.019 270.798 512.63 284.48 513 296C505.439 300.957 502.587 319.818 505 328C516.765 323.956 528.709 317.05 540 311.645C544.667 309.411 550.339 308.309 552 303L548 302C554.639 294.841 565.185 294.573 574 291.495C590.28 285.809 612.876 273.871 621 258C617.287 256.612 610.173 253.526 609 259L605 255L603 257C597.149 251.043 573.248 248.315 565 250C562.653 247.314 558.347 247.314 556 250L553 250C550.527 247.279 535.597 247.022 533 250z"/>
    <path style="fill:#996600; stroke:none;" d="M35.3333 250.667L35.6667 251.333L35.3333 250.667M34 252L35 253L34 252M33 254L34 255L33 254M31.6667 255.333L32.3333 255.667L31.6667 255.333M31 257L32 258L31 257z"/>
    <path style="fill:#336699; stroke:none;" d="M614.667 258.333L615.333 258.667L614.667 258.333z"/>
    <path style="fill:#996600; stroke:none;" d="M29 260L30 261L29 260M28 261L25 268L26 268L28 261z"/>
    <path style="fill:#1f1b14; stroke:none;" d="M527 264C523.556 268.784 517.618 279.719 521.042 285.671C522.713 288.575 526.473 289.869 528.776 292.209C531.15 294.621 532.219 298.437 536.055 298.682C555.125 299.9 581.67 288.301 597 278L527 264z"/>
    <path style="fill:#996600; stroke:none;" d="M24 269L25 270L24 269z"/>
    <path style="fill:#336699; stroke:none;" d="M658 269L659 270L658 269z"/>
    <path style="fill:#996600; stroke:none;" d="M23.3333 270.667L23.6667 271.333L23.3333 270.667z"/>
    <path style="fill:#336699; stroke:none;" d="M654 270L655 271L654 270z"/>
    <path style="fill:#996600; stroke:none;" d="M22.3333 272.667L22.6667 273.333L22.3333 272.667M21 274L19 281L20 281L21 274z"/>
    <path style="fill:#336699; stroke:none;" d="M681 276L682 277L681 276M19 277L20 278L19 277M18 279L14 292L15 292L18 279z"/>
    <path style="fill:#ff5500; stroke:none;" d="M707 281L708 282L707 281z"/>
    <path style="fill:#996600; stroke:none;" d="M18 282L19 283L18 282z"/>
    <path style="fill:#ff5500; stroke:none;" d="M715 282L716 283L715 282z"/>
    <path style="fill:#996600; stroke:none;" d="M17.3333 284.667L17.6667 285.333L17.3333 284.667z"/>
    <path style="fill:#ff5500; stroke:none;" d="M714 284L715 285L714 284M708 286L708 287L713 287L708 286z"/>
    <path style="fill:#996600; stroke:none;" d="M16.3333 287.667L16.6667 288.333L16.3333 287.667M15 290L16 291L15 290M14.3333 292.667L14.6667 293.333L14.3333 292.667z"/>
    <path style="fill:#336699; stroke:none;" d="M513 297L513 298C518.522 300.658 524.478 300.658 530 298C526.172 287.355 519.701 296.224 513 297z"/>
    <path style="fill:#99ff33; stroke:none;" d="M560 299C566.677 300.075 574.617 297.112 579 292L560 299z"/>
    <path style="fill:#336699; stroke:none;" d="M13.3333 293.667L13.6667 294.333L13.3333 293.667z"/>
    <path style="fill:#996600; stroke:none;" d="M13 295L12 301L13 301L13 295z"/>
    <path style="fill:#1f1b14; stroke:none;" d="M641 295L641 298L642 298L641 295z"/>
    <path style="fill:#336699; stroke:none;" d="M12.3333 296.667L12.6667 297.333L12.3333 296.667M192.667 296.333L193.333 296.667L192.667 296.333z"/>
    <path style="fill:#99ff33; stroke:none;" d="M520 298L520 299L526 298L520 298z"/>
    <path style="fill:#1f1b14; stroke:none;" d="M540 355L539 355C538.956 353.321 538.488 348.577 537 352L536 352L536 343C518.338 347.049 502.169 353.671 484 351C470.683 372.577 445.997 397.523 423 408.741C410.945 414.621 397.85 416.674 385 420L385 421L431 417.285L448 416L448 419L449 419L479 412C496.596 417.555 497.865 400.999 512 397L512 396L521 374L522 374L521 378L522 378L526 371L527 374L528 374L530 370L531 370L532 373L540 365C539.678 378.736 527.269 387.905 535 401L541 403L542 403L557 400L565 398L564 395L578 400L578 398L589 399L613 384C625.308 385.12 632.907 373.351 642 367L641 364C643.862 362.709 650.578 359.454 647 356L649 350C645.603 343.28 653.368 338.536 655.13 332.999C655.99 330.295 654.418 328.537 656 326L656 325L656 324C654.499 322.188 654.842 321.978 657 321C655.188 314.14 648.19 307.553 641 307L640 298L610 316.395L563 334.586L543.603 341.728L540 355z"/>
    <path style="fill:#336699; stroke:none;" d="M11 299L11 302L12 302L11 299z"/>
    <path style="fill:#1f1b14; stroke:none;" d="M514 301L513 313C520.776 311.487 523.393 309.022 529 304L529 303L514 301z"/>
    <path style="fill:#ff5500; stroke:none;" d="M640.333 301.667L640.667 302.333L640.333 301.667z"/>
    <path style="fill:#996600; stroke:none;" d="M11 302L11 305L12 305L11 302z"/>
    <path style="fill:#336699; stroke:none;" d="M10.3333 304.667L10.6667 305.333L10.3333 304.667z"/>
    <path style="fill:#ff5500; stroke:none;" d="M638 304L639 305L638 304z"/>
    <path style="fill:#996600; stroke:none;" d="M10 306L10 309L11 309L10 306z"/>
    <path style="fill:#336699; stroke:none;" d="M540 307L540 308L547 307L540 307z"/>
    <path style="fill:#1f1b14; stroke:none;" d="M34 307L35 308L34 307z"/>
    <path style="fill:#336699; stroke:none;" d="M9 309L9 312L10 312L9 309z"/>
    <path style="fill:#ff5500; stroke:none;" d="M710 309L711 310L710 309z"/>
    <path style="fill:#996600; stroke:none;" d="M9 312L9 315L10 315L9 312z"/>
    <path style="fill:#336699; stroke:none;" d="M8 315L8 318L9 318L8 315M744 315L746 322L744 315z"/>
    <path style="fill:#ff5500; stroke:none;" d="M88 316L89 317L88 316z"/>
    <path style="fill:#336699; stroke:none;" d="M697 316L698 317L697 316z"/>
    <path style="fill:#996600; stroke:none;" d="M8 318L8 322L9 322L8 318z"/>
    <path style="fill:#336699; stroke:none;" d="M7.33333 322.667L7.66667 323.333L7.33333 322.667z"/>
    <path style="fill:#ff5500; stroke:none;" d="M89 323L90 324L89 323z"/>
    <path style="fill:#996600; stroke:none;" d="M7 324L7 330L8 330L7 324z"/>
    <path style="fill:#ff5500; stroke:none;" d="M589.667 324.333L590.333 324.667L589.667 324.333z"/>
    <path style="fill:#336699; stroke:none;" d="M744 324L746 333L746 324L744 324z"/>
    <path style="fill:#ff5500; stroke:none;" d="M587.667 325.333L588.333 325.667L587.667 325.333M88 326L89 327L88 326M584 326L584 327L587 327L584 326M582.667 327.333L583.333 327.667L582.667 327.333M652 327L653 328L652 327z"/>
    <path style="fill:#996600; stroke:none;" d="M745 327L745 330L746 330L745 327z"/>
    <path style="fill:#ff5500; stroke:none;" d="M579.667 328.333L580.333 328.667L579.667 328.333M576 329L576 330L579 330L576 329z"/>
    <path style="fill:#336699; stroke:none;" d="M83 330L84 331L83 330z"/>
    <path style="fill:#ff5500; stroke:none;" d="M573 330L573 331L576 331L573 330M570.667 331.333L571.333 331.667L570.667 331.333z"/>
    <path style="fill:#996600; stroke:none;" d="M745 331L746 332L745 331z"/>
    <path style="fill:#336699; stroke:none;" d="M6.33333 332.667L6.66667 333.333L6.33333 332.667z"/>
    <path style="fill:#ff5500; stroke:none;" d="M568.667 332.333L569.333 332.667L568.667 332.333M565 333L566 334L565 333z"/>
    <path style="fill:#996600; stroke:none;" d="M744 333L744 335L746 333L744 333M6.33333 334.667L6.66667 335.333L6.33333 334.667z"/>
    <path style="fill:#ff5500; stroke:none;" d="M562.667 334.333L563.333 334.667L562.667 334.333z"/>
    <path style="fill:#336699; stroke:none;" d="M743 334L744 335L743 334M745 334L746 335L745 334z"/>
    <path style="fill:#ff5500; stroke:none;" d="M559.667 335.333L560.333 335.667L559.667 335.333z"/>
    <path style="fill:#336699; stroke:none;" d="M681.667 335.333L682.333 335.667L681.667 335.333M744 335L743 345L744 345L744 335M6 336L7 337L6 336z"/>
    <path style="fill:#ff5500; stroke:none;" d="M556.667 336.333L557.333 336.667L556.667 336.333z"/>
    <path style="fill:#996600; stroke:none;" d="M6 337L6 350L7 350L6 337z"/>
    <path style="fill:#ff5500; stroke:none;" d="M553.667 337.333L554.333 337.667L553.667 337.333z"/>
    <path style="fill:#996600; stroke:none;" d="M744 337L744 341L745 341L744 337z"/>
    <path style="fill:#ff5500; stroke:none;" d="M549 338L549 339L552 339L549 338M546 339L546 340L549 340L546 339M543.667 340.333L544.333 340.667L543.667 340.333M541 341L540 346L537 346L537 343L536 343L536 352L537 352L538 350L539 355L540 355L543 341L541 341M532.667 343.333L533.333 343.667L532.667 343.333M529.667 344.333L530.333 344.667L529.667 344.333z"/>
    <path style="fill:#99ff33; stroke:none;" d="M727 344C712.938 352.208 689.331 362.381 695 383L680 395C690.699 393.889 702.706 395.846 712.787 389.822C716.081 387.853 717.657 383.306 719.219 380C723.46 371.024 733.54 353.573 727 344z"/>
    <path style="fill:#ff5500; stroke:none;" d="M525.667 345.333L526.333 345.667L525.667 345.333z"/>
    <path style="fill:#336699; stroke:none;" d="M742 345L742 349L743 349L742 345z"/>
    <path style="fill:#1f1b14; stroke:none;" d="M29 346L30 347L29 346z"/>
    <path style="fill:#ff5500; stroke:none;" d="M521.667 346.333L522.333 346.667L521.667 346.333z"/>
    <path style="fill:#336699; stroke:none;" d="M680 346L679 350L680 346z"/>
    <path style="fill:#ff5500; stroke:none;" d="M87 347L87 349L89 347L87 347M517 347L517 348L520 348L517 347M513 348L513 349L516 349L513 348M508 349L508 350L511 350L508 349M503 350L503 351L507 351L503 350M695 353L696 354L695 353z"/>
    <path style="fill:#996600; stroke:none;" d="M7 356L7 361L8 361L7 356z"/>
    <path style="fill:#336699; stroke:none;" d="M641 391C648.123 389.561 658.623 381.871 658 374L664 362C652.677 364.191 642.921 380.229 641 391z"/>
    <path style="fill:#996600; stroke:none;" d="M8 364L8 368L9 368L8 364M656 367L654 371L655 371L656 367z"/>
    <path style="fill:#336699; stroke:none;" d="M537 368L532 379L531 379L532 375L531 375L527 383L529 382L529 383L523 392C528.836 387.702 539.328 375.895 537 368z"/>
    <path style="fill:#99ff33; stroke:none;" d="M654 369L655 370L654 369M653 370L647 382L648 382L653 370z"/>
    <path style="fill:#996600; stroke:none;" d="M9 371L9 374L10 374L9 371z"/>
    <path style="fill:#336699; stroke:none;" d="M525.333 373.667L525.667 374.333L525.333 373.667z"/>
    <path style="fill:#1f1b14; stroke:none;" d="M530.333 373.667L530.667 374.333L530.333 373.667z"/>
    <path style="fill:#996600; stroke:none;" d="M650 374L651 375L650 374M10 375L10 379L11 379L10 375z"/>
    <path style="fill:#336699; stroke:none;" d="M524 375L522 380L524 375z"/>
    <path style="fill:#996600; stroke:none;" d="M651 375L652 376L651 375M648 377L649 378L648 377z"/>
    <path style="fill:#1f1b14; stroke:none;" d="M520 378L519 381L520 378z"/>
    <path style="fill:#996600; stroke:none;" d="M649 378L650 379L649 378M11 380L11 383L12 383L11 380z"/>
    <path style="fill:#336699; stroke:none;" d="M521 380L522 381L521 380z"/>
    <path style="fill:#ff5500; stroke:none;" d="M530 380L531 381L530 380z"/>
    <path style="fill:#99ff33; stroke:none;" d="M646 382L647 383L646 382z"/>
    <path style="fill:#ff5500; stroke:none;" d="M726.333 382.667L726.667 383.333L726.333 382.667z"/>
    <path style="fill:#996600; stroke:none;" d="M12 384L12 387L13 387L12 384z"/>
    <path style="fill:#336699; stroke:none;" d="M518 384L519 385L518 384M517 386L516 388L517 386z"/>
    <path style="fill:#996600; stroke:none;" d="M13 387L13 390L14 390L13 387z"/>
    <path style="fill:#1f1b14; stroke:none;" d="M609.667 388.333L610.333 388.667L609.667 388.333M47 389L48 390L47 389z"/>
    <path style="fill:#996600; stroke:none;" d="M14.3333 391.667L14.6667 392.333L14.3333 391.667z"/>
    <path style="fill:#1f1b14; stroke:none;" d="M513 393L513 394L516 395L513 393z"/>
    <path style="fill:#996600; stroke:none;" d="M15.3333 394.667L15.6667 395.333L15.3333 394.667z"/>
    <path style="fill:#ff5500; stroke:none;" d="M654 394L655 395L654 394z"/>
    <path style="fill:#996600; stroke:none;" d="M16 396L16 399L17 399L16 396z"/>
    <path style="fill:#ff5500; stroke:none;" d="M650 396L651 397L650 396z"/>
    <path style="fill:#996600; stroke:none;" d="M17 399L17 402L18 402L17 399z"/>
    <path style="fill:#336699; stroke:none;" d="M639 399L640 400L639 399z"/>
    <path style="fill:#996600; stroke:none;" d="M18.3333 402.667L18.6667 403.333L18.3333 402.667z"/>
    <path style="fill:#1f1b14; stroke:none;" d="M536 402L535 404L536 402z"/>
    <path style="fill:#996600; stroke:none;" d="M19.3333 404.667L19.6667 405.333L19.3333 404.667M20.3333 407.667L20.6667 408.333L20.3333 407.667M21.3333 409.667L21.6667 410.333L21.3333 409.667z"/>
    <path style="fill:#ff5500; stroke:none;" d="M630 409L631 410L630 409z"/>
    <path style="fill:#996600; stroke:none;" d="M22.3333 411.667L22.6667 412.333L22.3333 411.667z"/>
    <path style="fill:#336699; stroke:none;" d="M504 412L503 414L505 414L504 412z"/>
    <path style="fill:#996600; stroke:none;" d="M23 413L24 417L25 417L23 413z"/>
    <path style="fill:#1f1b14; stroke:none;" d="M481 415L481 418L485 417L481 415z"/>
    <path style="fill:#996600; stroke:none;" d="M25 417L27 423L28 423L25 417M28 423L29 427L30 427L28 423M30 427L32 430L30 427M32 430L34 435L35 435L32 430M35 435L37 438L35 435z"/>
    <path style="fill:#ff5500; stroke:none;" d="M424 437L424 438L428 438L424 437z"/>
    <path style="fill:#996600; stroke:none;" d="M37 438C39.5865 445.611 46.5728 452.175 51.7894 458.17C64.4363 472.704 77.6006 486.843 94 497.214C100.095 501.068 106.531 509.32 114 509L114 511L126 516L126 515C102.407 501.084 80.4131 485.454 61.0856 465.91C52.6013 457.331 46.2574 445.536 37 438z"/>
    <path style="fill:#ff5500; stroke:none;" d="M421 438L422 439L421 438z"/>
    <path style="fill:#336699; stroke:none;" d="M41 445L42 446L41 445M42 446L43 447L42 446M43 447L44 448L43 447M44 449L45 450L44 449M104 451L111 459L104 451M122 451L123 452L122 451M47 453L48 454L47 453M123 453L123 454L127 456L123 453z"/>
    <path style="fill:#ff5500; stroke:none;" d="M130.333 453.667L130.667 454.333L130.333 453.667z"/>
    <path style="fill:#336699; stroke:none;" d="M48 454L49 455L48 454M50 456L51 457L50 456M51 457L52 458L51 457M52 458L53 459L52 458M53 460L54 461L53 460z"/>
    <path style="fill:#ff5500; stroke:none;" d="M43 461L44 462L43 461z"/>
    <path style="fill:#336699; stroke:none;" d="M54 461L55 462L54 461M55 462L56 463L55 462z"/>
    <path style="fill:#ff5500; stroke:none;" d="M51 466L52 467L51 466z"/>
    <path style="fill:#336699; stroke:none;" d="M129 466L130 467L129 466M64 471L65 472L64 471M67 474L67 476L69 476L67 474z"/>
    <path style="fill:#ff5500; stroke:none;" d="M37 478L37 479L40 479L37 478z"/>
    <path style="fill:#336699; stroke:none;" d="M81 487L82 488L81 487M82 488L83 489L82 488M88 493L89 494L88 493M91 495L92 496L91 495M92 496L93 497L92 496M94 497L95 498L94 497M95 498L98 500L95 498M98 500L99 501L98 500M100 501L104 505L100 501z"/>
    <path style="fill:#ff5500; stroke:none;" d="M33 504L33 505L38 505L33 504M44 504L44 506L46 506L46 504L44 504M52 504L52 506L59 506L59 504L52 504M64 505L65 506L64 505z"/>
    <path style="fill:#336699; stroke:none;" d="M111 509L112 510L111 509M113.333 509.667L113.667 510.333L113.333 509.667M114 511L118 513L114 511M118 513L119 514L118 513M120 514L121 515L120 514M121 515L122 516L121 515z"/>
    <path style="fill:#996600; stroke:none;" d="M126 516L126 517L130 518C132.083 521.658 134.908 522.578 139 523L139 522L126 516M139 523L139 525L141 525L141 523L139 523M142 524L143 525L142 524M144 525L145 526L144 525M146 526L147 527L146 526M147 527L153 530L153 529L147 527z"/>
    <path style="fill:#99ff33; stroke:none;" d="M519.667 529.333L520.333 529.667L519.667 529.333z"/>
    <path style="fill:#996600; stroke:none;" d="M158.667 532.333L159.333 532.667L158.667 532.333z"/>
    <path style="fill:#336699; stroke:none;" d="M512 532L513 533L512 532z"/>
    <path style="fill:#996600; stroke:none;" d="M161 533L162 534L161 533M164 534L165 535L164 534M166 535L169 537L169 536L166 535M169.667 537.333L170.333 537.667L169.667 537.333z"/>
    <path style="fill:#336699; stroke:none;" d="M510 537L511 538L510 537z"/>
    <path style="fill:#996600; stroke:none;" d="M172.667 538.333L173.333 538.667L172.667 538.333M174 539L174 540L177 540L174 539M187 543L188 544L187 543M190 544L191 545L190 544M199 547L200 548L199 547M200 548L201 549L200 548M203 549L203 550L206 550L203 549M208.667 550.333L209.333 550.667L208.667 550.333M210 551L210 552L213 552L210 551M214 552L214 553L217 553L214 552M217 553L217 554L220 554L217 553M223.667 554.333L224.333 554.667L223.667 554.333M226 555L227 556L226 555M229 556L230 557L229 556M247.667 560.333L248.333 560.667L247.667 560.333M252 561L253 562L252 561M278 565L279 566L278 565M284 566L284 567L288 567L284 566M294 567L295 568L294 567M300 568L301 569L300 568M311 569L312 570L311 569z"/>
</svg>
